HIERARCHY
ROOT Hips
{
	OFFSET 0.00000 0.00000 0.00000
	CHANNELS 6 Xposition Yposition Zposition Zrotation Yrotation Xrotation 
	JOINT LHipJoint
	{
		OFFSET 0 0 0
		CHANNELS 3 Zrotation Yrotation Xrotation
		JOINT LeftUpLeg
		{
			OFFSET 1.34019 -1.87553 0.90315
			CHANNELS 3 Zrotation Yrotation Xrotation
			JOINT LeftLeg
			{
				OFFSET 2.55316 -7.01474 0.00000
				CHANNELS 3 Zrotation Yrotation Xrotation
				JOINT LeftFoot
				{
					OFFSET 2.64657 -7.27139 0.00000
					CHANNELS 3 Zrotation Yrotation Xrotation
					JOINT LeftToeBase
					{
						OFFSET 0.24207 -0.66507 2.14489
						CHANNELS 3 Zrotation Yrotation Xrotation
						End Site
						{
							OFFSET 0.00000 -0.00000 1.12451
						}
					}
				}
			}
		}
	}
	JOINT RHipJoint
	{
		OFFSET 0 0 0
		CHANNELS 3 Zrotation Yrotation Xrotation
		JOINT RightUpLeg
		{
			OFFSET -1.28320 -1.87553 0.90315
			CHANNELS 3 Zrotation Yrotation Xrotation
			JOINT RightLeg
			{
				OFFSET -2.60484 -7.15674 0.00000
				CHANNELS 3 Zrotation Yrotation Xrotation
				JOINT RightFoot
				{
					OFFSET -2.60296 -7.15159 0.00000
					CHANNELS 3 Zrotation Yrotation Xrotation
					JOINT RightToeBase
					{
						OFFSET -0.31082 -0.85398 2.28998
						CHANNELS 3 Zrotation Yrotation Xrotation
						End Site
						{
							OFFSET -0.00000 -0.00000 1.21611
						}
					}
				}
			}
		}
	}
	JOINT LowerBack
	{
		OFFSET 0 0 0
		CHANNELS 3 Zrotation Yrotation Xrotation
		JOINT Spine
		{
			OFFSET -0.00160 2.05581 -0.15156
			CHANNELS 3 Zrotation Yrotation Xrotation
			JOINT Spine1
			{
				OFFSET 0.04594 2.06326 -0.01617
				CHANNELS 3 Zrotation Yrotation Xrotation
				JOINT Neck
				{
					OFFSET 0 0 0
					CHANNELS 3 Zrotation Yrotation Xrotation
					JOINT Neck1
					{
						OFFSET 0.03753 1.73883 0.26751
						CHANNELS 3 Zrotation Yrotation Xrotation
						JOINT Head
						{
							OFFSET -0.09795 1.76129 -0.31794
							CHANNELS 3 Zrotation Yrotation Xrotation
							End Site
							{
								OFFSET -0.03611 1.79987 -0.13846
							}
						}
					}
				}
				JOINT LeftShoulder
				{
					OFFSET 0 0 0
					CHANNELS 3 Zrotation Yrotation Xrotation
					JOINT LeftArm
					{
						OFFSET 3.30667 1.29205 -0.22445
						CHANNELS 3 Zrotation Yrotation Xrotation
						JOINT LeftForeArm
						{
							OFFSET 4.92785 -0.00000 -0.00000
							CHANNELS 3 Zrotation Yrotation Xrotation
							JOINT LeftHand
							{
								OFFSET 3.44052 -0.00000 0.00000
								CHANNELS 3 Zrotation Yrotation Xrotation
								JOINT LeftFingerBase
								{
									OFFSET 0 0 0
									CHANNELS 3 Zrotation Yrotation Xrotation
									JOINT LeftHandIndex1
									{
										OFFSET 0.65433 -0.00000 0.00000
										CHANNELS 3 Zrotation Yrotation Xrotation
										End Site
										{
											OFFSET 0.52753 -0.00000 0.00000
										}
									}
								}
								JOINT LThumb
								{
									OFFSET 0 0 0
									CHANNELS 3 Zrotation Yrotation Xrotation
									End Site
									{
										OFFSET 0.53559 -0.00000 0.53559
									}
								}
							}
						}
					}
				}
				JOINT RightShoulder
				{
					OFFSET 0 0 0
					CHANNELS 3 Zrotation Yrotation Xrotation
					JOINT RightArm
					{
						OFFSET -3.20032 1.49783 -0.27688
						CHANNELS 3 Zrotation Yrotation Xrotation
						JOINT RightForeArm
						{
							OFFSET -5.09181 -0.00000 -0.00000
							CHANNELS 3 Zrotation Yrotation Xrotation
							JOINT RightHand
							{
								OFFSET -3.49865 -0.00000 -0.00000
								CHANNELS 3 Zrotation Yrotation Xrotation
								JOINT RightFingerBase
								{
									OFFSET 0 0 0
									CHANNELS 3 Zrotation Yrotation Xrotation
									JOINT RightHandIndex1
									{
										OFFSET -0.66641 -0.00000 0.00000
										CHANNELS 3 Zrotation Yrotation Xrotation
										End Site
										{
											OFFSET -0.53728 -0.00000 0.00000
										}
									}
								}
								JOINT RThumb
								{
									OFFSET 0 0 0
									CHANNELS 3 Zrotation Yrotation Xrotation
									End Site
									{
										OFFSET -0.54548 -0.00000 0.54548
									}
								}
							}
						}
					}
				}
			}
		}
	}
}
MOTION
Frames: 16
Frame Time: .0083333
0.9583 18.1296 -9.7698 0.1353 3.5085 4.8906 0.0000 0.0000 0.0000 -17.9614 -4.5354 -5.2672 1.9975 8.8609 25.3611 0.0789 8.5955 -13.6504 0.8781 -5.9741 -16.7092 0.0000 0.0000 0.0000 11.4121 2.4010 -30.5029 -2.0140 -8.8951 25.4677 0.1688 -10.4475 -11.8166 -0.4433 4.2721 -11.8434 -4.4141 -0.3585 11.5249 2.4442 -0.8930 2.0165 5.2000 -0.3684 -4.2397 9.1271 2.1117 -25.1458 -9.9688 2.3180 23.8241 -4.9515 0.5260 12.2725 0.0000 -0.0000 0.0000 -49.4842 4.2703 -22.7492 19.4478 -29.9713 -5.2527 -0.0000 0.0000 -0.4208 16.3435 2.9378 0.8611 -7.1250 0.0000 -0.0000 -8.3227 32.9604 2.4776 0.0000 -0.0000 0.0000 39.0731 -6.7884 -23.5774 -18.9782 29.3916 -5.0202 0.0000 -0.0000 -5.3942 -20.3444 -5.0934 1.8854 7.1250 -0.0000 -0.0000 5.2770 -35.3699 1.2528
0.9452 18.1279 -9.6876 0.3732 3.5917 4.8808 0.0000 0.0000 0.0000 -18.1729 -4.3787 -4.7908 1.9412 8.7424 24.9929 0.0839 8.4970 -13.6096 0.8929 -6.0228 -16.8506 0.0000 0.0000 0.0000 11.0369 2.7623 -30.3535 -1.8921 -8.6376 24.6682 0.1971 -10.9798 -12.2030 -0.4548 4.3263 -11.9964 -4.4821 -0.3424 11.4494 2.4703 -0.8760 1.9927 5.2627 -0.3589 -4.2236 9.0700 2.0666 -25.1229 -10.1081 2.3215 23.8470 -4.9970 0.5042 12.2790 0.0000 0.0000 0.0000 -49.0846 4.1787 -22.6974 19.5794 -30.1322 -5.3186 -0.0000 0.0000 -0.4839 16.4378 2.9069 0.8572 -7.1250 0.0000 -0.0000 -8.2434 32.9314 2.4593 0.0000 0.0000 0.0000 39.2769 -6.7589 -23.6482 -18.8924 29.2848 -4.9781 0.0000 -0.0000 -5.2271 -20.3088 -5.0685 1.8727 7.1250 -0.0000 -0.0000 5.3041 -35.3418 1.2629
0.9314 18.1206 -9.6053 0.6215 3.6752 4.8653 0.0000 0.0000 0.0000 -18.3835 -4.2007 -4.3458 1.8933 8.6402 24.6761 0.0923 8.3609 -13.5781 0.9095 -6.0771 -17.0082 0.0000 0.0000 0.0000 10.6769 3.0675 -30.2360 -1.7984 -8.4330 24.0372 0.2299 -11.5654 -12.6344 -0.4623 4.3615 -12.0959 -4.5380 -0.3265 11.3839 2.4983 -0.8580 1.9691 5.3207 -0.3488 -4.2130 8.9816 2.0163 -25.1030 -10.2252 2.3240 23.8805 -5.0290 0.4819 12.2894 -0.0000 -0.0000 0.0000 -48.6819 4.0999 -22.6480 19.7187 -30.3020 -5.3887 -0.0000 0.0000 -0.5392 16.5630 2.8771 0.8552 -7.1250 0.0000 -0.0000 -8.1394 32.9046 2.4331 -0.0000 -0.0000 0.0000 39.4640 -6.7235 -23.7733 -18.8029 29.1730 -4.9344 0.0000 -0.0000 -5.0462 -20.2746 -5.0295 1.8549 7.1250 -0.0000 -0.0000 5.3287 -35.2989 1.2744
0.9171 18.1117 -9.5222 0.8692 3.7597 4.8374 0.0000 0.0000 0.0000 -18.5818 -3.9988 -3.9159 1.8519 8.5506 24.3992 0.1030 8.1910 -13.5438 0.9297 -6.1424 -17.1982 0.0000 0.0000 0.0000 10.3502 3.3067 -30.1338 -1.7305 -8.2806 23.5697 0.2646 -12.1612 -13.0912 -0.4637 4.3679 -12.1141 -4.5721 -0.3126 11.3224 2.5306 -0.8398 1.9530 5.3708 -0.3393 -4.1971 8.8891 1.9698 -25.1161 -10.3464 2.3341 23.9455 -5.0628 0.4615 12.3196 -0.0000 -0.0000 0.0000 -48.2751 4.0327 -22.6184 19.8615 -30.4751 -5.4609 -0.0000 0.0000 -0.5938 16.6971 2.8388 0.8511 -7.1250 0.0000 -0.0000 -8.0273 32.8691 2.4060 -0.0000 -0.0000 0.0000 39.6395 -6.6859 -23.9037 -18.7281 29.0794 -4.8980 0.0000 -0.0000 -4.9166 -20.2821 -5.0457 1.8616 7.1250 -0.0000 -0.0000 5.3240 -35.3164 1.2710
0.9025 18.1011 -9.4385 1.1311 3.8464 4.8016 0.0000 0.0000 0.0000 -18.7850 -3.7882 -3.5115 1.8203 8.4814 24.1859 0.1165 7.9899 -13.5221 0.9531 -6.2170 -17.4152 0.0000 0.0000 0.0000 10.0397 3.4735 -30.0638 -1.6897 -8.1873 23.2845 0.2975 -12.7154 -13.5404 -0.4587 4.3444 -12.0475 -4.5956 -0.2984 11.2667 2.5618 -0.8202 1.9382 5.4136 -0.3291 -4.1835 8.7927 1.9231 -25.1345 -10.4700 2.3464 24.0165 -5.0970 0.4413 12.3536 0.0000 -0.0000 0.0000 -47.8673 3.9689 -22.6198 20.0049 -30.6483 -5.5339 -0.0000 0.0000 -0.6453 16.8244 2.7937 0.8444 -7.1250 0.0000 -0.0000 -7.9201 32.8264 2.3815 0.0000 -0.0000 0.0000 39.8045 -6.6587 -24.0360 -18.6668 29.0025 -4.8682 0.0000 -0.0000 -4.8345 -20.3190 -5.0880 1.8809 7.1250 -0.0000 -0.0000 5.2976 -35.3630 1.2586
0.8873 18.0888 -9.3533 1.4124 3.9378 4.7504 0.0000 0.0000 0.0000 -18.9987 -3.5726 -3.1207 1.7989 8.4339 24.0400 0.1324 7.7628 -13.5139 0.9804 -6.3030 -17.6660 0.0000 0.0000 0.0000 9.7394 3.5693 -30.0136 -1.6748 -8.1531 23.1801 0.3265 -13.1959 -13.9496 -0.4486 4.2969 -11.9135 -4.6205 -0.2873 11.2078 2.5929 -0.8047 1.9313 5.4574 -0.3215 -4.1592 8.6728 1.8692 -25.1367 -10.5761 2.3538 24.0831 -5.1205 0.4192 12.3817 0.0000 0.0000 0.0000 -47.4621 3.9236 -22.6345 20.1539 -30.8273 -5.6100 -0.0000 0.0000 -0.7304 16.9347 2.7447 0.8354 -7.1250 0.0000 -0.0000 -7.8262 32.7790 2.3619 0.0000 0.0000 0.0000 39.9551 -6.6394 -24.1509 -18.6189 28.9424 -4.8450 0.0000 -0.0000 -4.7749 -20.3608 -5.1404 1.9044 7.1250 -0.0000 -0.0000 5.2680 -35.4206 1.2441
0.8714 18.0753 -9.2672 1.6980 4.0423 4.6895 0.0000 0.0000 0.0000 -19.2038 -3.3553 -2.7428 1.7841 8.4011 23.9390 0.1503 7.5012 -13.5038 1.0105 -6.3961 -17.9382 0.0000 0.0000 0.0000 9.4633 3.6029 -29.9657 -1.6796 -8.1641 23.2137 0.3513 -13.5877 -14.2806 -0.4352 4.2331 -11.7335 -4.6292 -0.2819 11.1493 2.6270 -0.7947 1.9265 5.4959 -0.3170 -4.1324 8.5564 1.8163 -25.1158 -10.6878 2.3639 24.1349 -5.1454 0.3983 12.4000 0.0000 -0.0000 0.0000 -47.0567 3.8854 -22.6713 20.2975 -30.9991 -5.6838 -0.0000 0.0000 -0.8320 17.0372 2.7349 0.8377 -7.1250 0.0000 -0.0000 -7.7427 32.7718 2.3376 0.0000 -0.0000 0.0000 40.0942 -6.6182 -24.2786 -18.5733 28.8850 -4.8230 0.0000 -0.0000 -4.7098 -20.3908 -5.1639 1.9162 7.1250 -0.0000 -0.0000 5.2454 -35.4469 1.2354
0.8545 18.0556 -9.1796 1.9974 4.1587 4.6169 0.0000 0.0000 0.0000 -19.4100 -3.1394 -2.3781 1.7780 8.3874 23.8971 0.1701 7.2102 -13.4986 1.0437 -6.4970 -18.2334 0.0000 0.0000 0.0000 9.1960 3.5811 -29.9186 -1.7028 -8.2174 23.3763 0.3705 -13.8723 -14.5090 -0.4220 4.1693 -11.5535 -4.6348 -0.2842 11.0930 2.6599 -0.7946 1.9208 5.5328 -0.3173 -4.1067 8.4605 1.7734 -25.0588 -10.8210 2.3873 24.1592 -5.1780 0.3831 12.4027 0.0000 -0.0000 0.0000 -46.6578 3.8818 -22.7202 20.4430 -31.1724 -5.7589 -0.0000 0.0000 -0.9419 17.1113 2.7228 0.8379 -7.1250 0.0000 -0.0000 -7.6818 32.7614 2.3209 0.0000 -0.0000 0.0000 40.2203 -6.6047 -24.3834 -18.5290 28.8292 -4.8016 0.0000 -0.0000 -4.6117 -20.4101 -5.1718 1.9211 7.1250 -0.0000 -0.0000 5.2302 -35.4562 1.2306
0.8371 18.0397 -9.0904 2.3035 4.2799 4.5344 0.0000 0.0000 0.0000 -19.6157 -2.9299 -2.0269 1.7797 8.3912 23.9089 0.1900 6.9030 -13.4870 1.0794 -6.6038 -18.5469 0.0000 0.0000 0.0000 8.9427 3.5277 -29.8374 -1.7400 -8.3020 23.6352 0.3822 -14.0424 -14.6465 -0.4081 4.1008 -11.3606 -4.6282 -0.2902 11.0318 2.6928 -0.7979 1.9198 5.5631 -0.3199 -4.0730 8.3623 1.7357 -24.9970 -10.9578 2.4190 24.1653 -5.2092 0.3709 12.3983 -0.0000 0.0000 0.0000 -46.2560 3.8919 -22.7634 20.5814 -31.3364 -5.8307 -0.0000 0.0000 -1.0687 17.1829 2.7541 0.8512 -7.1250 0.0000 -0.0000 -7.6274 32.7960 2.2978 -0.0000 0.0000 0.0000 40.3356 -6.5951 -24.4850 -18.4832 28.7715 -4.7796 0.0000 -0.0000 -4.4778 -20.4190 -5.1486 1.9134 7.1250 -0.0000 -0.0000 5.2204 -35.4321 1.2314
0.8185 18.0228 -9.0002 2.6178 4.4098 4.4476 0.0000 0.0000 0.0000 -19.8187 -2.7396 -1.7007 1.7908 8.4161 23.9853 0.2087 6.5874 -13.4568 1.1200 -6.7228 -18.8966 0.0000 0.0000 0.0000 8.6914 3.4711 -29.7260 -1.7904 -8.4151 23.9821 0.3867 -14.1078 -14.6994 -0.3957 4.0391 -11.1867 -4.6186 -0.3013 10.9705 2.7236 -0.8076 1.9218 5.5903 -0.3259 -4.0353 8.2930 1.7132 -24.9476 -11.1209 2.4670 24.1607 -5.2529 0.3649 12.3952 -0.0000 0.0000 0.0000 -45.8463 3.9116 -22.8165 20.7045 -31.4818 -5.8949 -0.0000 0.0000 -1.1993 17.2470 2.7937 0.8669 -7.1250 0.0000 -0.0000 -7.5798 32.8389 2.2753 -0.0000 0.0000 0.0000 40.4485 -6.5808 -24.5752 -18.4389 28.7155 -4.7582 0.0000 -0.0000 -4.3490 -20.4230 -5.1119 1.9002 7.1250 -0.0000 -0.0000 5.2136 -35.3933 1.2347
0.7989 18.0055 -8.9088 2.9283 4.5470 4.3510 0.0000 0.0000 0.0000 -20.0084 -2.5679 -1.3777 1.8073 8.4526 24.0976 0.2253 6.2685 -13.3986 1.1634 -6.8474 -19.2642 0.0000 0.0000 0.0000 8.4481 3.4311 -29.5538 -1.8478 -8.5416 24.3717 0.3870 -14.0873 -14.6513 -0.3831 3.9751 -11.0067 -4.5964 -0.3177 10.9155 2.7611 -0.8229 1.9305 5.6181 -0.3351 -3.9934 8.2179 1.6955 -24.8985 -11.2889 2.5253 24.1521 -5.2955 0.3624 12.3920 0.0000 -0.0000 0.0000 -45.4427 3.9371 -22.8848 20.8113 -31.6074 -5.9507 -0.0000 0.0000 -1.3166 17.2963 2.8048 0.8730 -7.1250 0.0000 -0.0000 -7.5412 32.8520 2.2611 0.0000 -0.0000 0.0000 40.5473 -6.5700 -24.6341 -18.4036 28.6709 -4.7413 0.0000 -0.0000 -4.2525 -20.4059 -5.0601 1.8793 7.1250 -0.0000 -0.0000 5.2228 -35.3375 1.2440
0.7781 17.9883 -8.8164 3.2233 4.6868 4.2448 0.0000 0.0000 0.0000 -20.1733 -2.4274 -1.0698 1.8328 8.5088 24.2705 0.2393 5.9576 -13.3183 1.2099 -6.9779 -19.6499 0.0000 0.0000 0.0000 8.2145 3.4354 -29.3329 -1.9144 -8.6855 24.8164 0.3826 -13.9882 -14.5272 -0.3714 3.9143 -10.8357 -4.5514 -0.3365 10.8689 2.8057 -0.8387 1.9389 5.6406 -0.3446 -3.9567 8.1385 1.6770 -24.8618 -11.4676 2.5873 24.1585 -5.3420 0.3595 12.3980 -0.0000 -0.0000 0.0000 -45.0397 3.9648 -22.9709 20.8928 -31.7030 -5.9935 -0.0000 0.0000 -1.4150 17.3593 2.8356 0.8860 -7.1250 0.0000 -0.0000 -7.4936 32.8859 2.2405 -0.0000 -0.0000 0.0000 40.6436 -6.5655 -24.6665 -18.3806 28.6418 -4.7303 0.0000 -0.0000 -4.2200 -20.4021 -5.0409 1.8718 7.1250 -0.0000 -0.0000 5.2241 -35.3170 1.2469
0.7565 17.9722 -8.7229 3.5003 4.8375 4.1318 0.0000 0.0000 0.0000 -20.3137 -2.3281 -0.7747 1.8669 8.5831 24.4996 0.2504 5.6561 -13.2115 1.2589 -7.1127 -20.0498 0.0000 0.0000 0.0000 7.9865 3.4736 -29.0757 -1.9877 -8.8404 25.2972 0.3752 -13.8215 -14.3194 -0.3616 3.8628 -10.6909 -4.4764 -0.3598 10.8267 2.8583 -0.8570 1.9492 5.6548 -0.3556 -3.9205 8.0544 1.6564 -24.8449 -11.6564 2.6503 24.1679 -5.3923 0.3548 12.4095 0.0000 0.0000 0.0000 -44.6466 3.9838 -23.0818 20.9551 -31.7759 -6.0263 -0.0000 0.0000 -1.5079 17.4121 2.8690 0.8993 -7.1250 0.0000 -0.0000 -7.4544 32.9222 2.2220 0.0000 0.0000 0.0000 40.7366 -6.5615 -24.6968 -18.3666 28.6240 -4.7235 0.0000 -0.0000 -4.2420 -20.3984 -5.0396 1.8710 7.1250 -0.0000 -0.0000 5.2271 -35.3154 1.2478
0.7342 17.9579 -8.6286 3.7514 4.9869 4.0150 0.0000 0.0000 0.0000 -20.4244 -2.2694 -0.4973 1.9097 8.6755 24.7853 0.2581 5.3714 -13.0741 1.3105 -7.2515 -20.4627 0.0000 0.0000 0.0000 7.7647 3.5686 -28.7927 -2.0646 -8.9993 25.7932 0.3687 -13.6302 -14.0431 -0.3539 3.8219 -10.5762 -4.3638 -0.3812 10.7915 2.9207 -0.8684 1.9506 5.6572 -0.3630 -3.8989 7.9731 1.6298 -24.7961 -11.8663 2.7117 24.1752 -5.4511 0.3477 12.4144 -0.0000 0.0000 0.0000 -44.2637 4.0086 -23.2008 20.9961 -31.8239 -6.0479 -0.0000 0.0000 -1.5667 17.4404 2.8728 0.9020 -7.1250 0.0000 -0.0000 -7.4319 32.9269 2.2143 -0.0000 0.0000 0.0000 40.8238 -6.5891 -24.6998 -18.3653 28.6224 -4.7229 0.0000 -0.0000 -4.3397 -20.3828 -5.0504 1.8734 7.1250 -0.0000 -0.0000 5.2410 -35.3262 1.2498
0.7116 17.9462 -8.5341 3.9603 5.1263 3.9007 0.0000 0.0000 0.0000 -20.4913 -2.2486 -0.2481 1.9615 8.7853 25.1260 0.2617 5.1061 -12.8967 1.3649 -7.3944 -20.8892 0.0000 0.0000 0.0000 7.5678 3.7075 -28.5132 -2.1426 -9.1569 26.2874 0.3671 -13.4450 -13.6870 -0.3527 3.8156 -10.5584 -4.1905 -0.3985 10.7534 2.9936 -0.8669 1.9506 5.6342 -0.3645 -3.8797 7.8728 1.5925 -24.7718 -12.0731 2.7657 24.2171 -5.5090 0.3352 12.4368 -0.0000 -0.0000 0.0000 -43.8901 4.0055 -23.3508 21.0098 -31.8398 -6.0551 -0.0000 0.0000 -1.6041 17.4592 2.8666 0.9012 -7.1250 0.0000 -0.0000 -7.4161 32.9212 2.2106 -0.0000 -0.0000 0.0000 40.9146 -6.6213 -24.7334 -18.3616 28.6178 -4.7212 0.0000 -0.0000 -4.4255 -20.3708 -5.0694 1.8792 7.1250 -0.0000 -0.0000 5.2529 -35.3458 1.2501
0.6887 17.9378 -8.4397 4.1108 5.2457 3.7894 0.0000 0.0000 0.0000 -20.4949 -2.2492 -0.0395 2.0231 8.9140 25.5268 0.2615 4.8509 -12.6732 1.4214 -7.5396 -21.3242 0.0000 0.0000 0.0000 7.4198 3.8828 -28.2530 -2.2196 -9.3093 26.7677 0.3725 -13.3006 -13.2700 -0.3599 3.8542 -10.6667 -3.9448 -0.4108 10.7106 3.0818 -0.8500 1.9454 5.5836 -0.3588 -3.8661 7.7941 1.5583 -24.7188 -12.3109 2.8270 24.2615 -5.5817 0.3248 12.4567 0.0000 -0.0000 0.0000 -43.5414 4.0186 -23.4842 21.0272 -31.8601 -6.0643 -0.0000 0.0000 -1.6573 17.4613 2.8485 0.8956 -7.1250 0.0000 -0.0000 -7.4127 32.9024 2.2129 0.0000 -0.0000 0.0000 41.0029 -6.6479 -24.8151 -18.3438 28.5952 -4.7126 0.0000 -0.0000 -4.4670 -20.3384 -5.0631 1.8737 7.1250 -0.0000 -0.0000 5.2790 -35.3375 1.2575
